#!OML:ASF X:\für Bonn\!DataBase\2005_08_12_Daniel\c3d\Daniel.ASF
:FULLY-SPECIFIED
:DEGREES
47
root -14.1508 16.1221 21.7357 -497.728 65.7423 -494.077
lowerback 19.3987 -4.4752 12.3439
upperback 4.21197 -2.71029 2.89022
thorax -6.69381 -1.30751 -3.1674
lowerneck -1.36246 13.1822 1.92427
upperneck -7.22529 17.3244 -15.0207
head -0.454402 9.00675 -5.06909
rclavicle -4.94974e-014 8.74653e-015
rhumerus -56.6399 -6.12299 -81.4084
rradius 58.261
rwrist -3.79651
rhand -27.2196 31.6312
rfingers 7.12502
rthumb -0.632162 1.65243
lclavicle -4.94974e-014 8.74653e-015
lhumerus -54.4881 -4.8779 93.7571
lradius 92.7686
lwrist 14.0312
lhand -4.47737 -8.88192
lfingers 7.12502
lthumb 21.2955 19.9681
rfemur -19.8137 -1.82967 32.7898
rtibia 49.7303
rfoot -27.3219 7.52427
rtoes -10.8441
lfemur -8.39958 -0.711891 -11.2046
ltibia 86.8997
lfoot -3.7853 -6.46527
ltoes -2.9516
48
root -13.9562 16.0587 21.6289 -498.222 65.5929 -494.119
lowerback 19.8088 -4.34178 12.6188
upperback 4.2624 -2.38701 2.9877
thorax -6.81556 -1.14978 -3.28537
lowerneck -1.72612 12.9667 2.01278
upperneck -7.34737 17.0413 -15.0351
head -0.447346 8.86297 -5.07745
rclavicle 7.7526e-015 1.59028e-014
rhumerus -54.9553 -6.08851 -82.3125
rradius 59.3307
rwrist -3.19298
rhand -27.3715 31.4036
rfingers 7.12502
rthumb -0.778852 1.42525
lclavicle 7.7526e-015 1.59028e-014
lhumerus -55.1271 -4.62831 94.3053
lradius 90.3114
lwrist 13.6177
lhand -5.09079 -7.98316
lfingers 7.12502
lthumb 20.7062 20.9322
rfemur -18.5421 -2.43764 32.546
rtibia 49.9373
rfoot -28.2147 8.3067
rtoes -10.6622
lfemur -9.98465 -0.0163827 -10.6414
ltibia 89.4346
lfoot -4.29483 -7.02955
ltoes -2.39709
49
root -13.7645 16.0143 21.5229 -498.798 65.5092 -494.291
lowerback 20.2303 -4.15744 12.7441
upperback 4.26752 -2.02776 3.06605
thorax -6.9819 -0.979464 -3.35256
lowerneck -1.98255 12.7358 2.18608
upperneck -7.42708 16.7376 -15.0878
head -0.435565 8.7086 -5.12181
rclavicle 5.1684e-014 1.59028e-015
rhumerus -53.4051 -5.56503 -83.4692
rradius 60.7954
rwrist -2.73734
rhand -27.7603 30.9154
rfingers 7.12502
rthumb -1.15436 0.938811
lclavicle 5.1684e-014 1.59028e-015
lhumerus -55.8115 -4.37291 94.7602
lradius 88.0755
lwrist 13.2236
lhand -5.90317 -7.1391
lfingers 7.12502
lthumb 19.9254 21.8594
rfemur -17.1679 -2.93067 32.2111
rtibia 49.8693
rfoot -28.986 8.97345
rtoes -10.4897
lfemur -11.6516 0.647522 -10.1894
ltibia 91.7238
lfoot -4.75835 -7.57777
ltoes -1.7553
50
root -13.5711 15.9872 21.4151 -499.49 65.4677 -494.644
lowerback 20.6043 -3.93009 12.6769
upperback 4.23402 -1.66175 3.15847
thorax -7.15922 -0.807356 -3.30318
lowerneck -2.16528 12.5237 2.44238
upperneck -7.62491 16.4149 -15.6077
head -0.357201 8.56266 -4.78586
rclavicle -4.59193e-014 4.45278e-014
rhumerus -51.9014 -4.59795 -84.7491
rradius 62.4114
rwrist -2.27939
rhand -28.2474 30.4475
rfingers 7.12502
rthumb -1.62489 0.473965
lclavicle -4.59193e-014 4.45278e-014
lhumerus -56.6644 -4.05101 95.1752
lradius 86.1701
lwrist 12.8697
lhand -6.74299 -6.55565
lfingers 7.12502
lthumb 19.118 22.5247
rfemur -15.6886 -3.30988 31.7975
rtibia 49.5456
rfoot -29.7413 9.48207
rtoes -10.5072
lfemur -13.3843 1.31834 -9.87513
ltibia 93.7202
lfoot -5.22246 -8.02414
ltoes -1.23031
